<?xml version="1.0" encoding="utf-8"?>
<svg version="1.1" id="Livello_1" xmlns="http://www.w3.org/2000/svg" xmlns:xlink="http://www.w3.org/1999/xlink" x="0px" y="0px"
	 viewBox="0 0 597 469.7" style="enable-background:new 0 0 597 469.7;" xml:space="preserve">
<style type="text/css">
	.icon-cart0{fill:#666666;}
</style>
<g>
	<path class="icon-cart0" d="M222.6,125.1c0-7.9-0.5-15.2,0.1-22.5c2.8-36.8,34.2-67.4,70.6-69c39.6-1.8,73.7,24.7,79.8,62.3
		c1.5,9.4,1.4,19,2.1,29.2c1.1,0,2.6,0,4.1,0c14.5,0,29.1,0,43.7,0c5.8,0,7.5,1.4,8.2,7.1c3.5,29.1,6.8,58,10.2,87.1
		c3.8,32,7.6,64.1,11.3,96.1c2.9,24.4,6.1,48.7,8.5,73c2.7,27.4-16.3,47.9-43.9,47.9c-79.3,0-158.5,0-237.8,0
		c-28.7,0-47.6-22.3-43.8-50.6c3.6-27.1,6.5-54.1,9.7-81.3c3.5-29.6,7-59.1,10.4-88.8c3.2-27.1,6.4-54.2,9.5-81.3
		c0.9-8.1,2-9.2,10-9.2C190.7,125.1,206.1,125.1,222.6,125.1z M176.9,136.8c-0.2,1.2-0.5,2-0.6,2.8c-3.9,33-7.8,66-11.6,99
		c-5.8,49.4-11.3,98.8-17.5,148.1c-3.1,24.4,14.6,38.3,33.4,38.2c78.5-0.5,157.1-0.2,235.6-0.2c3.2,0,6.5,0,9.5-0.7
		c16.8-3.7,26-17.9,23.9-36.8c-4.1-35.6-8.4-71.2-12.5-106.9c-5-42.1-9.9-84.2-14.8-126.3c-0.7-5.8-1.4-11.4-2.2-17.1
		c-15.3,0-30.2,0-45.1,0c-0.1,0.7-0.2,1.1-0.2,1.5c0,8.9,0.1,17.7-0.1,26.6c-0.1,2.8,0.7,4,3.4,5.1c10.8,4.3,17,15.8,14.7,26.9
		c-2.4,11.9-12.3,20-24.2,19.9c-11.3-0.1-21.4-8.4-23.5-19.2c-2.3-11.8,3.7-23.1,14.7-27.7c1.1-0.5,2.2-0.9,3.1-1.3
		c0-10.8,0-21.3,0-31.7c-43.2,0-86.1,0-129.1,0c0,10.8,0,21.3,0,31.7c1.6,0.6,3,1.2,4.4,1.8c10.3,4.8,15.8,15.8,13.6,27.2
		c-2.2,10.7-11.8,18.8-23.2,19.2c-11,0.4-21-6.9-24.1-17.4c-3.2-10.9,1.4-23.2,11.6-27.9c5.5-2.5,6.4-5.6,6-10.6
		c-0.4-6-0.1-11.9-0.1-17.9c0-2,0-4.1,0-6.3C206.7,136.8,192,136.8,176.9,136.8z M363.1,124.9c0-6.1,0.2-11.5,0-17.1
		c-1.4-41-39.7-70.4-79.5-61c-29.8,7.1-54.8,34.2-49.5,78.1C277,124.9,319.8,124.9,363.1,124.9z M215.2,192.5
		c0,7.2,5.8,13,12.8,12.9s12.6-5.8,12.7-12.7c0.1-6.9-5.7-12.7-12.5-12.8C220.9,179.8,215.2,185.2,215.2,192.5z M368.9,179.9
		c-7.2,0-13,5.8-12.9,12.8c0.1,6.9,5.9,12.6,12.7,12.7c7.1,0.1,12.9-5.8,12.8-12.9C381.5,185.4,376,179.9,368.9,179.9z"/>
	<path class="icon-cart0" d="M417.3,443.6H179.5c-15.8,0-29.8-6.1-39.4-16.9c-9.8-11.1-13.9-26.1-11.7-42.1c2.5-19.1,4.8-38.6,6.9-57.4
		c0.9-8,1.8-15.8,2.8-23.8c3.5-29.6,7-59.1,10.4-88.8c2.9-24.7,6.3-53.4,9.5-81.3c1.3-11.9,5.6-15.8,17.5-15.8h39.7
		c-0.1-5.1-0.2-10.3,0.2-15.6c1.5-19.6,10.3-38.2,25-52.4C255,35.3,273.7,27,293.2,26.1c21-1,41.3,5.5,57.4,17.9
		c16.2,12.6,26.9,30.5,30.1,50.6c1.1,6.8,1.4,13.6,1.7,20.3c0,0.9,0.1,1.8,0.1,2.6h40.7c9.7,0,14.4,4.2,15.5,13.6
		c1.8,14.5,3.5,29.4,5.2,43.6s3.4,29,5.1,43.5l11.3,96.1c0.8,6.8,1.6,13.5,2.5,20.3c2.1,17.3,4.3,35.2,6.1,52.8
		c1.5,15.2-2.9,29.4-12.3,39.7C446.8,437.9,433,443.6,417.3,443.6z M183.2,144.3l-11.1,95.2c-1.5,12.5-2.9,25.1-4.4,37.6
		c-4.2,36.2-8.6,73.7-13.1,110.5c-1.1,8.6,0.9,15.9,5.7,21.3c4.8,5.5,12.1,8.6,20.2,8.6c0.1,0,0.1,0,0.2,0
		c57.1-0.4,115.2-0.3,171.4-0.2c21.4,0,42.8,0,64.2,0c2.9,0,5.6,0,7.8-0.5h0.1c12.9-2.9,19.7-13.5,18-28.7
		c-2.7-23.7-5.6-47.9-8.4-71.2c-1.4-11.8-2.8-23.8-4.2-35.6c-2.5-21.1-5-42.1-7.5-63.2c-2.5-21-4.9-42.1-7.4-63.1
		c-0.4-3.4-0.8-7-1.3-10.5h-31.2c0,0.2,0,0.4,0,0.6c0,6.1,0,12.4-0.1,18.7c13.1,5.9,20.9,20.6,17.9,34.7
		c-3.1,15.2-15.9,25.9-31.2,25.9c-0.1,0-0.2,0-0.3,0c-14.8-0.1-28-10.9-30.7-25.3c-2.9-14.7,4.4-29,17.7-35.3v-19.3H241.2v19.3
		c13.3,6.2,20.7,20.7,17.8,35.3c-2.9,14.1-15.6,24.8-30.2,25.3c-14.4,0.5-27.5-8.9-31.5-22.8c-4.4-14.9,2.4-30.6,15.7-36.7
		c1-0.5,1.5-0.8,1.6-0.9c0-0.2,0.1-0.8,0-2.3c-0.3-4.6-0.2-9-0.2-13.2c0-1.3,0-2.7,0-4C204,144.3,193.8,144.3,183.2,144.3z
		 M368.9,187.3c-1.5,0-3,0.6-4,1.7c-1,1-1.5,2.3-1.5,3.6c0,2.8,2.6,5.4,5.4,5.4c0,0,0,0,0.1,0c1.4,0,2.6-0.5,3.6-1.5
		s1.6-2.4,1.6-3.9v-0.1C374.1,189.5,371.9,187.3,368.9,187.3z M228,187.3c-1.5,0-2.9,0.5-3.9,1.5c-0.7,0.7-1.5,1.8-1.5,3.7
		c0,1.5,0.6,3,1.7,4c1,1,2.3,1.5,3.6,1.5c2.9,0,5.4-2.5,5.4-5.4C233.3,189.9,230.9,187.3,228,187.3C228.1,187.3,228,187.3,228,187.3
		z M214.8,163.8L214.8,163.8L214.8,163.8z M380.4,163L380.4,163L380.4,163z M241,117.4h114.7c0-3.2,0.1-6.3-0.1-9.4
		c-0.6-17.4-8.9-33.3-22.6-43.9C319.4,53.7,302,50,285.3,54C263.1,59.3,239,79,241,117.4z"/>
</g>
</svg>
