<?xml version="1.0" encoding="utf-8"?>
<svg version="1.1" id="Livello_1" xmlns="http://www.w3.org/2000/svg" xmlns:xlink="http://www.w3.org/1999/xlink" x="0px" y="0px"
	 viewBox="0 0 597 469.7" style="enable-background:new 0 0 597 469.7;" xml:space="preserve">
<style type="text/css">
	.icon-account0{fill:#666666;}
</style>
<g>
	<g>
		<path class="icon-account0" d="M306.6,27.2c10.6,2.5,21.7,3.9,31.7,7.8c33.3,13.2,56,37.3,65.3,71.9c11.9,44,0.2,82.3-33.9,112.6
			c-24.8,22-54.5,30.4-87.4,25.3c-39.4-6.2-68-28-84-64.3c-16.2-36.9-12.3-73,10.4-106.3c16.6-24.3,40-39,68.8-44.9
			c4.2-0.9,8.5-1.4,12.8-2.1c2.5,0,5,0,7.5,0C300.8,27.2,303.7,27.2,306.6,27.2z M298.3,51.6c-46.9,0.2-85.2,38.6-85,85.4
			c0.2,46.9,38.6,85.2,85.4,85c46.9-0.2,85.2-38.6,85-85.4C383.5,89.7,345.1,51.4,298.3,51.6z"/>
		<path class="icon-account0" d="M300.9,247.3c-6.1,0-12.3-0.5-18.7-1.5c-40.1-6.3-68.6-28.1-84.7-64.9c-16.3-37.1-12.7-73.2,10.5-107.3
			c16.4-24,39.7-39.2,69.4-45.4c2.9-0.6,5.9-1,8.8-1.5c1.3-0.2,2.7-0.4,4-0.6h0.2h16.5c3.3,0.8,6.7,1.5,10,2.1
			c7.3,1.5,14.8,3,21.8,5.7c34.4,13.6,56.6,38,65.9,72.6c6,22.1,6.1,42.9,0.3,62c-5.7,19-17.3,36.4-34.5,51.6
			C350.1,238.3,326.8,247.3,300.9,247.3z M290.5,28.2c-1.3,0.2-2.6,0.4-4,0.6c-2.9,0.4-5.8,0.9-8.7,1.5c-29.2,6-52.1,21-68.2,44.5
			c-22.9,33.5-26.3,68.9-10.4,105.3c15.9,36.1,43.9,57.5,83.2,63.7c32.9,5.2,62-3.3,86.5-25c34.1-30.3,45.4-67.8,33.6-111.6
			c-9.2-33.9-30.9-57.9-64.7-71.3c-6.8-2.7-14.2-4.2-21.4-5.6c-3.3-0.7-6.7-1.3-10-2.1H290.5z M298.4,223c-47.3,0-85.9-38.5-86.1-86
			c-0.2-47.5,38.4-86.2,86-86.4v1v-1c0.1,0,0.2,0,0.3,0c22.8,0,44.3,8.9,60.6,25.2c16.4,16.3,25.4,37.9,25.5,60.9
			c0.1,22.9-8.9,44.5-25.2,60.9c-16.3,16.4-37.9,25.4-60.9,25.5C298.6,223,298.5,223,298.4,223z M298.6,52.6c-0.1,0-0.2,0-0.3,0
			c-46.5,0.2-84.2,38-84,84.4s37.8,84,84.1,84c0.1,0,0.2,0,0.3,0c22.4-0.1,43.5-8.9,59.4-24.9s24.6-37.1,24.6-59.5
			c-0.1-22.4-8.9-43.5-24.9-59.4C341.9,61.3,320.9,52.6,298.6,52.6z"/>
	</g>
	<g>
		<path class="icon-account0" d="M298.4,442.7c-55.7,0-111.4,0-167.1,0c-11.3,0-15.6-4.6-15.2-15.9c1.2-36,12.6-68.4,35.3-96.4
			c26.3-32.4,60-52.5,101.6-57.9c12.9-1.7,26.1-1.6,39.2-1.7c14.5-0.1,28.9-0.1,43.4,0.7c22.7,1.3,44,8.1,63.8,19.3
			c26.4,15,46.9,35.8,61.7,62.3c9.7,17.3,15.9,35.7,18.4,55.4c0.8,6.4,1.3,12.9,1.6,19.4c0.5,9.9-4.3,14.9-14.2,14.9
			C410.6,442.7,354.5,442.7,298.4,442.7z M456.1,418.1c-0.5-3.6-0.8-7.1-1.4-10.5c-5.3-30.1-19-55.9-41.3-76.7
			c-22.7-21.1-49.7-33.6-80.8-35.2c-21.4-1.1-43-0.8-64.4-0.4c-20.2,0.4-39.2,6-56.9,15.7c-28.6,15.7-48.9,38.7-61.2,68.8
			c-5,12.2-8,24.9-9.1,38.3C246,418.1,350.9,418.1,456.1,418.1z"/>
		<path class="icon-account0" d="M382.1,443.7c-11.5,0-23.1,0-34.6,0H131.3c-6,0-10-1.3-12.7-4c-2.6-2.7-3.8-6.8-3.6-13
			c1.2-36.8,13.1-69.4,35.5-97c27-33.3,61.4-52.9,102.3-58.3c11.5-1.5,23.3-1.6,34.7-1.7c1.5,0,3.1,0,4.6,0
			c12.9-0.1,28.2-0.1,43.4,0.7c22.1,1.3,43.7,7.8,64.2,19.5c26.3,14.9,47.2,36,62.1,62.6c9.8,17.5,16,36.2,18.5,55.7
			c0.7,5.6,1.2,11.6,1.6,19.5c0.3,5.2-0.9,9.2-3.5,11.8c-2.6,2.7-6.5,4.1-11.8,4.1C438.5,443.7,410.3,443.7,382.1,443.7z
			 M298.4,441.7h49.1c39.7,0,79.5,0,119.2,0c4.7,0,8.2-1.2,10.3-3.4c2.2-2.3,3.1-5.8,2.9-10.4c-0.4-7.8-0.9-13.7-1.6-19.3
			c-2.5-19.3-8.6-37.8-18.3-55c-14.7-26.3-35.4-47.2-61.3-61.9c-20.3-11.5-41.6-18-63.3-19.2c-15.2-0.9-30.4-0.8-43.3-0.7
			c-1.5,0-3.1,0-4.6,0c-11.4,0.1-23.1,0.2-34.5,1.7c-40.3,5.3-74.3,24.6-101,57.6c-22.1,27.2-33.9,59.5-35,95.8
			c-0.2,5.5,0.8,9.2,3,11.5s5.8,3.4,11.2,3.4L298.4,441.7z M457.2,419.1H139.9l0.1-1.1c1.1-13.4,4.2-26.4,9.1-38.6
			c12.4-30.4,33.2-53.7,61.7-69.3c18.4-10.1,37.7-15.4,57.3-15.8c20.6-0.4,42.6-0.7,64.5,0.4c30.3,1.5,57.7,13.5,81.4,35.5
			c22.3,20.7,36.3,46.7,41.6,77.2c0.4,2.3,0.7,4.7,1,7.1c0.1,1.1,0.3,2.3,0.4,3.4L457.2,419.1z M142.1,417.1H455
			c-0.1-0.8-0.2-1.6-0.3-2.3c-0.3-2.4-0.5-4.7-0.9-7c-5.3-30.1-19.1-55.7-41-76.1c-23.3-21.7-50.3-33.4-80.1-34.9
			c-21.9-1.1-43.8-0.8-64.4-0.4C249,296.8,230,302,211.9,312c-28.1,15.4-48.5,38.4-60.8,68.3C146.2,391.9,143.2,404.3,142.1,417.1z"
			/>
	</g>
</g>
</svg>
