<?xml version="1.0" encoding="utf-8"?>
<!-- Svg Vector Icons : http://www.onlinewebfonts.com/icon -->
<!DOCTYPE svg PUBLIC "-//W3C//DTD SVG 1.1//EN" "http://www.w3.org/Graphics/SVG/1.1/DTD/svg11.dtd">
<svg fill="#ffffff" version="1.1" xmlns="http://www.w3.org/2000/svg" xmlns:xlink="http://www.w3.org/1999/xlink" x="0px" y="0px" viewBox="0 0 1000 1000" enable-background="new 0 0 1000 1000" xml:space="preserve">
<metadata> Svg Vector Icons : http://www.onlinewebfonts.com/icon </metadata>
<g><path d="M500,10C229.7,10,10,229.7,10,500s219.7,490,490,490s490-219.7,490-490S770.3,10,500,10z M500,924.5c-43.8,0-85.9-6.7-125.7-18.9c17.2-28.1,43.3-74.4,52.8-111.2c5.2-19.9,26.4-100.9,26.4-100.9c13.8,26.4,54.4,48.8,97.2,48.8c128,0,220.3-117.7,220.3-264.1C771,337.9,656.6,233,509.4,233C326.2,233,229,356.1,229,489.9c0,62.2,33.1,139.7,86.1,164.4c8,3.8,12.3,2.1,14.2-5.7c1.3-5.9,8.6-34.7,11.9-48.2c1-4.2,0.6-8-2.9-12.2c-17.6-21.3-31.6-60.5-31.6-96.9c0-93.6,70.8-184.3,191.6-184.3c104.3,0,177.2,71,177.2,172.6c0,114.8-58,194.5-133.4,194.5c-41.7,0-72.9-34.5-62.8-76.8c12.1-50.5,35.2-104.9,35.2-141.3c0-32.5-17.4-59.7-53.8-59.7c-42.7,0-76.7,44-76.7,103.2c0,37.5,12.6,63,12.6,63s-42.1,177.8-49.8,210.9c-8.6,36.8-5.2,88.2-1.5,121.7C187.4,833.5,75.5,680,75.5,500C75.5,265.6,265.5,75.5,500,75.5c234.5,0,424.5,190.1,424.5,424.5C924.6,734.5,734.5,924.6,500,924.5L500,924.5z"/></g>
</svg>