<?xml version="1.0" encoding="utf-8"?>
<svg version="1.1" id="Livello_1" xmlns="http://www.w3.org/2000/svg" xmlns:xlink="http://www.w3.org/1999/xlink" x="0px" y="0px"
	 viewBox="0 0 597 469.7" style="enable-background:new 0 0 597 469.7;" xml:space="preserve">
<style type="text/css">
	.icon-whishlist{fill:#666666;}
</style>
<g>
	<g>
		<path class="icon-whishlist" d="M409.9,26c-50.6,0-88.2,31.1-111.4,75.2C275.3,57.1,237.7,26,187.1,26c-73,0-126.2,61.3-126.2,136
			c0,98.8,94.3,160.9,228.4,278.2c5.3,4.6,13.1,4.6,18.3,0C441.7,322.9,536.1,260.9,536.1,162C536.1,87.3,482.8,26,409.9,26
			L409.9,26z M298.5,411.3C174.9,304,88.7,244.3,88.7,162c0-61.6,42.3-108.1,98.4-108.1c54.1,0,87.5,50.1,97.9,87.2
			c3.8,13.5,23,13.6,26.9,0c10.2-36.7,43.4-87.2,97.9-87.2c56.1,0,98.4,46.5,98.4,108.1C508.3,244.4,421.9,304.1,298.5,411.3z"/>
		<path class="icon-whishlist" d="M298.5,444.2c-3.4,0-6.8-1.2-9.5-3.5c-20.8-18.2-40.4-34.8-59.3-50.9C127.8,303,60.4,245.7,60.4,162
			c0-36.7,12.7-70.9,35.9-96.3c23.6-25.9,55.8-40.2,90.8-40.2c46.3,0,85.8,26.5,111.4,74.6c25.6-48.1,65.1-74.6,111.4-74.6
			c35,0,67.3,14.3,90.8,40.2c23.1,25.4,35.9,59.6,35.9,96.3c0,83.8-67.4,141.1-169.4,227.7c-18.9,16.1-38.5,32.7-59.3,50.9
			C305.2,443,301.8,444.2,298.5,444.2z M187.1,26.5c-34.7,0-66.7,14.1-90.1,39.8c-23,25.2-35.6,59.2-35.6,95.6
			c0,83.2,67.2,140.4,168.9,226.9c18.9,16.1,38.5,32.7,59.3,50.9c5,4.4,12.6,4.4,17.7,0c20.8-18.2,40.4-34.8,59.3-50.9
			c101.8-86.5,169-143.6,169-227c0-36.4-12.6-70.4-35.6-95.6c-23.4-25.7-55.4-39.8-90.1-39.8c-46.1,0-85.5,26.6-110.9,75l-0.4,0.8
			l-0.4-0.8C272.7,53.1,233.3,26.5,187.1,26.5z M298.5,412l-0.3-0.3c-17.6-15.3-34.2-29.4-50.3-43.1
			C151.7,286.9,88.2,232.9,88.2,162c0-61.9,42.5-108.6,98.9-108.6c24.3,0,47,10.3,65.7,29.8c14.9,15.5,26.8,36.6,32.7,57.8
			c1.7,5.9,6.7,9.8,12.9,9.8c0,0,0,0,0,0c6.2,0,11.3-3.8,13-9.8c5.9-21.1,17.7-42.1,32.5-57.6c18.7-19.6,41.5-30,66-30
			c56.4,0,98.9,46.7,98.9,108.6c0,70.8-63.3,124.7-159.2,206.2c-16.2,13.8-33,28.1-50.7,43.5L298.5,412z M187.1,54.4
			c-55.8,0-97.9,46.3-97.9,107.6c0,70.4,63.4,124.3,159.3,205.8c16,13.6,32.6,27.7,50,42.8c17.6-15.3,34.3-29.5,50.4-43.2
			c95.7-81.3,158.9-135.1,158.9-205.5c0-61.3-42.1-107.6-97.9-107.6c-24.2,0-46.7,10.3-65.2,29.7c-14.6,15.4-26.4,36.2-32.2,57.2
			c-1.8,6.4-7.3,10.5-13.9,10.5c0,0,0,0,0,0c-6.7,0-12.1-4.2-13.9-10.5c-5.9-21-17.7-41.9-32.5-57.4
			C233.6,64.6,211.2,54.4,187.1,54.4z"/>
	</g>
</g>
</svg>
